<svg width="145" height="22" viewBox="0 0 145 22" fill="none" xmlns="http://www.w3.org/2000/svg">
<path d="M0.265625 17H10.3516V14.3437H4.63281V14.2578L10.1484 7.16406V5H0.46875V7.65625H6.14063V7.74219L0.265625 15.0156V17ZM16.2246 10.0625C16.2324 8.51563 17.1543 7.60937 18.498 7.60937C19.834 7.60937 20.6387 8.48437 20.6309 9.95312V17H23.959V9.35937C23.959 6.5625 22.3184 4.84375 19.8184 4.84375C18.0371 4.84375 16.748 5.71875 16.209 7.11719H16.0684V5H12.8965V17H16.2246V10.0625ZM26.582 21.5H29.9102V15.0781H30.0117C30.4727 16.0781 31.4805 17.1953 33.418 17.1953C36.1523 17.1953 38.2852 15.0312 38.2852 11.0156C38.2852 6.89062 36.0586 4.84375 33.4258 4.84375C31.418 4.84375 30.457 6.03906 30.0117 7.01562H29.8633V5H26.582V21.5ZM29.8398 11C29.8398 8.85938 30.7461 7.49219 32.3633 7.49219C34.0117 7.49219 34.8867 8.92188 34.8867 11C34.8867 13.0937 33.9961 14.5469 32.3633 14.5469C30.7617 14.5469 29.8398 13.1406 29.8398 11ZM57.041 8.42187C56.7441 6.21094 54.9629 4.84375 51.9316 4.84375C48.8613 4.84375 46.8379 6.26562 46.8457 8.57812C46.8379 10.375 47.9707 11.5391 50.3145 12.0078L52.3926 12.4219C53.4395 12.6328 53.916 13.0156 53.9316 13.6172C53.916 14.3281 53.1426 14.8359 51.9785 14.8359C50.791 14.8359 50.002 14.3281 49.7988 13.3516L46.5254 13.5234C46.8379 15.8203 48.791 17.2344 51.9707 17.2344C55.0801 17.2344 57.3066 15.6484 57.3145 13.2812C57.3066 11.5469 56.1738 10.5078 53.8457 10.0312L51.6738 9.59375C50.5566 9.35156 50.1426 8.96875 50.1504 8.39062C50.1426 7.67187 50.9551 7.20312 51.9863 7.20312C53.1426 7.20312 53.8301 7.83594 53.9941 8.60937L57.041 8.42187ZM64.832 17.2344C68.4727 17.2344 70.7383 14.7422 70.7383 11.0469C70.7383 7.32812 68.4727 4.84375 64.832 4.84375C61.1914 4.84375 58.9258 7.32812 58.9258 11.0469C58.9258 14.7422 61.1914 17.2344 64.832 17.2344ZM64.8477 14.6562C63.168 14.6562 62.3086 13.1172 62.3086 11.0234C62.3086 8.92969 63.168 7.38281 64.8477 7.38281C66.4961 7.38281 67.3555 8.92969 67.3555 11.0234C67.3555 13.1172 66.4961 14.6562 64.8477 14.6562ZM76.2305 1H72.9023V17H76.2305V1ZM86.5918 11.8906C86.5996 13.5 85.498 14.3437 84.3027 14.3437C83.0449 14.3437 82.2324 13.4609 82.2246 12.0469V5H78.8965V12.6406C78.9043 15.4453 80.5449 17.1563 82.959 17.1563C84.7637 17.1563 86.0605 16.2266 86.5996 14.8203H86.7246V17H89.9199V5H86.5918V11.8906ZM98.9648 5H96.707V2.125H93.3789V5H91.7383V7.5H93.3789V13.75C93.3633 16.1016 94.9648 17.2656 97.3789 17.1641C98.2383 17.1328 98.8477 16.9609 99.1836 16.8516L98.6602 14.375C98.4961 14.4062 98.1445 14.4844 97.832 14.4844C97.168 14.4844 96.707 14.2344 96.707 13.3125V7.5H98.9648V5ZM101.133 17H104.461V5H101.133V17ZM102.805 3.45312C103.797 3.45312 104.609 2.69531 104.609 1.76562C104.609 0.84375 103.797 0.0859367 102.805 0.0859367C101.82 0.0859367 101.008 0.84375 101.008 1.76562C101.008 2.69531 101.82 3.45312 102.805 3.45312ZM112.549 17.2344C116.189 17.2344 118.455 14.7422 118.455 11.0469C118.455 7.32812 116.189 4.84375 112.549 4.84375C108.908 4.84375 106.643 7.32812 106.643 11.0469C106.643 14.7422 108.908 17.2344 112.549 17.2344ZM112.564 14.6562C110.885 14.6562 110.025 13.1172 110.025 11.0234C110.025 8.92969 110.885 7.38281 112.564 7.38281C114.213 7.38281 115.072 8.92969 115.072 11.0234C115.072 13.1172 114.213 14.6562 112.564 14.6562ZM123.947 10.0625C123.955 8.51563 124.877 7.60937 126.221 7.60937C127.557 7.60937 128.361 8.48437 128.354 9.95312V17H131.682V9.35937C131.682 6.5625 130.041 4.84375 127.541 4.84375C125.76 4.84375 124.471 5.71875 123.932 7.11719H123.791V5H120.619V17H123.947V10.0625ZM144.289 8.42187C143.992 6.21094 142.211 4.84375 139.18 4.84375C136.109 4.84375 134.086 6.26562 134.094 8.57812C134.086 10.375 135.219 11.5391 137.563 12.0078L139.641 12.4219C140.687 12.6328 141.164 13.0156 141.18 13.6172C141.164 14.3281 140.391 14.8359 139.227 14.8359C138.039 14.8359 137.25 14.3281 137.047 13.3516L133.773 13.5234C134.086 15.8203 136.039 17.2344 139.219 17.2344C142.328 17.2344 144.555 15.6484 144.563 13.2812C144.555 11.5469 143.422 10.5078 141.094 10.0312L138.922 9.59375C137.805 9.35156 137.391 8.96875 137.398 8.39062C137.391 7.67187 138.203 7.20312 139.234 7.20312C140.391 7.20312 141.078 7.83594 141.242 8.60937L144.289 8.42187Z" fill="#261D1C"/>
<path d="M42.4492 17.2031C43.4492 17.2031 44.3164 16.3672 44.3242 15.3281C44.3164 14.3047 43.4492 13.4687 42.4492 13.4687C41.418 13.4687 40.5664 14.3047 40.5742 15.3281C40.5664 16.3672 41.418 17.2031 42.4492 17.2031Z" fill="#E06158"/>
</svg>
